# xmcd CD database file
#
# Track frame offsets:
#	150
#	34531
#	60925
#	87227
#	104329
#	134773
#	159906
#	183541
#	207424
#	226759
#
# Disc length: 3365 seconds
#
# Revision: 0
# Processed by: cddbd v1.4PL0 Copyright (c) Steve Scherf et al.
# Submitted via: CDex 1.50beta10a
#
DISCID=7c0d230a
DTITLE=John Grout - Celtic Nature
DYEAR=1998
DGENRE=New Age
TTITLE0=Slow Air
TTITLE1=Crimson Tempest
TTITLE2=Celtic Air
TTITLE3=Kerry Keel
TTITLE4=Megan's Song
TTITLE5=White Sails
TTITLE6=The Level Path
TTITLE7=And So Farewell
TTITLE8=The Dragon
TTITLE9=Cottage By The Sea
EXTD=YEAR: 1998
EXTT0=
EXTT1=
EXTT2=
EXTT3=
EXTT4=
EXTT5=
EXTT6=
EXTT7=
EXTT8=
EXTT9=
PLAYORDER=
